<svg xmlns="http://www.w3.org/2000/svg" width="32" height="32" viewBox="0 0 24 24"><g fill="none"><path fill="#000000" fill-rule="evenodd" d="M21 6H3v10a2 2 0 0 0 2 2h14a2 2 0 0 0 2-2zm-9 9a3 3 0 1 0 0-6a3 3 0 0 0 0 6" clip-rule="evenodd" opacity=".16"/><path stroke="#000000" stroke-linejoin="round" stroke-width="2" d="M3 5h18v12a2 2 0 0 1-2 2H5a2 2 0 0 1-2-2z"/><circle cx="12" cy="12" r="3" stroke="#888888" stroke-linecap="round" stroke-linejoin="round" stroke-width="2"/><path stroke="#000000" stroke-linecap="round" stroke-linejoin="round" stroke-width="2" d="M17 2h2"/></g></svg>